<svg width="160" height="127" viewBox="0 0 160 127" fill="none" xmlns="http://www.w3.org/2000/svg">
    <path
        d="M23.8912 19.0935C23.5459 19.4282 23.3872 19.9122 23.4659 20.3868L24.6512 26.9468C24.7512 27.5028 24.5165 28.0655 24.0512 28.3868C23.5952 28.7202 22.9885 28.7602 22.4912 28.4935L16.5858 25.4135C16.3805 25.3042 16.1525 25.2455 15.9192 25.2388H15.5578C15.4325 25.2575 15.3099 25.2975 15.1979 25.3588L9.29118 28.4535C8.99918 28.6002 8.66852 28.6522 8.34452 28.6002C7.55518 28.4508 7.02852 27.6988 7.15785 26.9055L8.34452 20.3455C8.42318 19.8668 8.26452 19.3802 7.91918 19.0402L3.10452 14.3735C2.70185 13.9828 2.56185 13.3962 2.74585 12.8668C2.92452 12.3388 3.38052 11.9535 3.93118 11.8668L10.5578 10.9055C11.0619 10.8535 11.5045 10.5468 11.7312 10.0935L14.6512 4.10683C14.7205 3.9735 14.8099 3.85083 14.9179 3.74683L15.0378 3.6535C15.1005 3.58416 15.1725 3.52683 15.2525 3.48016L15.3979 3.42683L15.6245 3.3335H16.1859C16.6872 3.3855 17.1285 3.6855 17.3592 4.1335L20.3179 10.0935C20.5312 10.5295 20.9459 10.8322 21.4245 10.9055L28.0512 11.8668C28.6112 11.9468 29.0792 12.3335 29.2645 12.8668C29.4392 13.4015 29.2885 13.9882 28.8779 14.3735L23.8912 19.0935Z"
        fill="#86A789" />
    <path
        d="M55.8912 19.0935C55.5459 19.4282 55.3872 19.9122 55.4659 20.3868L56.6512 26.9468C56.7512 27.5028 56.5165 28.0655 56.0512 28.3868C55.5952 28.7202 54.9885 28.7602 54.4912 28.4935L48.5858 25.4135C48.3805 25.3042 48.1525 25.2455 47.9192 25.2388H47.5578C47.4325 25.2575 47.3099 25.2975 47.1979 25.3588L41.2912 28.4535C40.9992 28.6002 40.6685 28.6522 40.3445 28.6002C39.5552 28.4508 39.0285 27.6988 39.1579 26.9055L40.3445 20.3455C40.4232 19.8668 40.2645 19.3802 39.9192 19.0402L35.1045 14.3735C34.7019 13.9828 34.5619 13.3962 34.7459 12.8668C34.9245 12.3388 35.3805 11.9535 35.9312 11.8668L42.5578 10.9055C43.0619 10.8535 43.5045 10.5468 43.7312 10.0935L46.6512 4.10683C46.7205 3.9735 46.8099 3.85083 46.9179 3.74683L47.0378 3.6535C47.1005 3.58416 47.1725 3.52683 47.2525 3.48016L47.3979 3.42683L47.6245 3.3335H48.1859C48.6872 3.3855 49.1285 3.6855 49.3592 4.1335L52.3179 10.0935C52.5312 10.5295 52.9459 10.8322 53.4245 10.9055L60.0512 11.8668C60.6112 11.9468 61.0792 12.3335 61.2645 12.8668C61.4392 13.4015 61.2885 13.9882 60.8779 14.3735L55.8912 19.0935Z"
        fill="#86A789" />
    <path
        d="M87.8912 19.0935C87.5459 19.4282 87.3872 19.9122 87.4659 20.3868L88.6512 26.9468C88.7512 27.5028 88.5165 28.0655 88.0512 28.3868C87.5952 28.7202 86.9885 28.7602 86.4912 28.4935L80.5858 25.4135C80.3805 25.3042 80.1525 25.2455 79.9192 25.2388H79.5578C79.4325 25.2575 79.3099 25.2975 79.1979 25.3588L73.2912 28.4535C72.9992 28.6002 72.6685 28.6522 72.3445 28.6002C71.5552 28.4508 71.0285 27.6988 71.1579 26.9055L72.3445 20.3455C72.4232 19.8668 72.2645 19.3802 71.9192 19.0402L67.1045 14.3735C66.7019 13.9828 66.5619 13.3962 66.7459 12.8668C66.9245 12.3388 67.3805 11.9535 67.9312 11.8668L74.5578 10.9055C75.0619 10.8535 75.5045 10.5468 75.7312 10.0935L78.6512 4.10683C78.7205 3.9735 78.8099 3.85083 78.9179 3.74683L79.0378 3.6535C79.1005 3.58416 79.1725 3.52683 79.2525 3.48016L79.3979 3.42683L79.6245 3.3335H80.1859C80.6872 3.3855 81.1285 3.6855 81.3592 4.1335L84.3179 10.0935C84.5312 10.5295 84.9459 10.8322 85.4245 10.9055L92.0512 11.8668C92.6112 11.9468 93.0792 12.3335 93.2645 12.8668C93.4392 13.4015 93.2885 13.9882 92.8779 14.3735L87.8912 19.0935Z"
        fill="#86A789" />
    <path
        d="M119.891 19.0935C119.546 19.4282 119.387 19.9122 119.466 20.3868L120.651 26.9468C120.751 27.5028 120.517 28.0655 120.051 28.3868C119.595 28.7202 118.989 28.7602 118.491 28.4935L112.586 25.4135C112.381 25.3042 112.153 25.2455 111.919 25.2388H111.558C111.433 25.2575 111.31 25.2975 111.198 25.3588L105.291 28.4535C104.999 28.6002 104.669 28.6522 104.345 28.6002C103.555 28.4508 103.029 27.6988 103.158 26.9055L104.345 20.3455C104.423 19.8668 104.265 19.3802 103.919 19.0402L99.1045 14.3735C98.7019 13.9828 98.5619 13.3962 98.7459 12.8668C98.9245 12.3388 99.3805 11.9535 99.9312 11.8668L106.558 10.9055C107.062 10.8535 107.505 10.5468 107.731 10.0935L110.651 4.10683C110.721 3.9735 110.81 3.85083 110.918 3.74683L111.038 3.6535C111.101 3.58416 111.173 3.52683 111.253 3.48016L111.398 3.42683L111.625 3.3335H112.186C112.687 3.3855 113.129 3.6855 113.359 4.1335L116.318 10.0935C116.531 10.5295 116.946 10.8322 117.425 10.9055L124.051 11.8668C124.611 11.9468 125.079 12.3335 125.265 12.8668C125.439 13.4015 125.289 13.9882 124.878 14.3735L119.891 19.0935Z"
        fill="#86A789" />
    <path
        d="M151.891 19.0935C151.546 19.4282 151.387 19.9122 151.466 20.3868L152.651 26.9468C152.751 27.5028 152.517 28.0655 152.051 28.3868C151.595 28.7202 150.989 28.7602 150.491 28.4935L144.586 25.4135C144.381 25.3042 144.153 25.2455 143.919 25.2388H143.558C143.433 25.2575 143.31 25.2975 143.198 25.3588L137.291 28.4535C136.999 28.6002 136.669 28.6522 136.345 28.6002C135.555 28.4508 135.029 27.6988 135.158 26.9055L136.345 20.3455C136.423 19.8668 136.265 19.3802 135.919 19.0402L131.105 14.3735C130.702 13.9828 130.562 13.3962 130.746 12.8668C130.925 12.3388 131.381 11.9535 131.931 11.8668L138.558 10.9055C139.062 10.8535 139.505 10.5468 139.731 10.0935L142.651 4.10683C142.721 3.9735 142.81 3.85083 142.918 3.74683L143.038 3.6535C143.101 3.58416 143.173 3.52683 143.253 3.48016L143.398 3.42683L143.625 3.3335H144.186C144.687 3.3855 145.129 3.6855 145.359 4.1335L148.318 10.0935C148.531 10.5295 148.946 10.8322 149.425 10.9055L156.051 11.8668C156.611 11.9468 157.079 12.3335 157.265 12.8668C157.439 13.4015 157.289 13.9882 156.878 14.3735L151.891 19.0935Z"
        fill="#86A789" />
    <path
        d="M22.4961 93.611C20.5064 93.611 18.7126 93.141 17.1146 92.201C15.5166 91.261 14.2476 89.9998 13.3076 88.4175C12.3676 86.8195 11.8976 85.0492 11.8976 83.1065H17.6316C17.6316 83.9838 17.8352 84.7828 18.2426 85.5035C18.6656 86.2242 19.2452 86.8038 19.9816 87.2425C20.7179 87.6655 21.5561 87.877 22.4961 87.877C23.3577 87.877 24.1567 87.6655 24.8931 87.2425C25.6451 86.8038 26.2482 86.2242 26.7026 85.5035C27.1569 84.7828 27.3841 83.9838 27.3841 83.1065C27.3841 81.9628 27.0786 81.015 26.4676 80.263C25.8566 79.4953 25.0027 78.9235 23.9061 78.5475C22.8251 78.1715 21.5639 77.9835 20.1226 77.9835V73.5655C22.0652 73.5655 23.6006 73.1973 24.7286 72.461C25.8722 71.7247 26.4441 70.6437 26.4441 69.218C26.4441 68.4817 26.2561 67.808 25.8801 67.197C25.5041 66.586 25.0027 66.1003 24.3761 65.74C23.7651 65.364 23.0914 65.176 22.3551 65.176C21.6031 65.176 20.8746 65.364 20.1696 65.74C19.4646 66.1003 18.8849 66.586 18.4306 67.197C17.9919 67.808 17.7726 68.4817 17.7726 69.218H12.0386C12.0386 67.8707 12.3127 66.6095 12.8611 65.4345C13.4094 64.2438 14.1614 63.202 15.1171 62.309C16.0884 61.416 17.1851 60.7188 18.4071 60.2175C19.6447 59.7005 20.9372 59.442 22.2846 59.442C24.0549 59.442 25.6921 59.8807 27.1961 60.758C28.7001 61.6353 29.9064 62.8103 30.8151 64.283C31.7237 65.7557 32.1781 67.4007 32.1781 69.218C32.1781 70.487 31.8804 71.7325 31.2851 72.9545C30.6897 74.1765 29.8437 75.0382 28.7471 75.5395C29.7027 75.8842 30.5017 76.4638 31.1441 77.2785C31.7864 78.0775 32.2721 78.994 32.6011 80.028C32.9457 81.0463 33.1181 82.0725 33.1181 83.1065C33.1181 85.0335 32.6324 86.796 31.6611 88.394C30.6897 89.9763 29.3972 91.2453 27.7836 92.201C26.1856 93.141 24.4231 93.611 22.4961 93.611ZM67.4024 60.1H74.1704L62.8669 78.1715V93H57.1329V78.1715L45.8294 60.1H52.5974L59.9999 71.9205L67.4024 60.1ZM83.0365 93.611C80.8745 93.611 78.9005 93.0548 77.1145 91.9425C75.3441 90.8302 73.9263 89.334 72.861 87.454C71.8113 85.574 71.2865 83.4982 71.2865 81.2265C71.2865 79.5188 71.592 77.9208 72.203 76.4325C72.814 74.9285 73.6521 73.6125 74.7175 72.4845C75.7985 71.3408 77.0518 70.4478 78.4775 69.8055C79.9031 69.1632 81.4228 68.842 83.0365 68.842C84.8695 68.842 86.5458 69.2337 88.0655 70.017C89.6008 70.7847 90.9011 71.8422 91.9665 73.1895C93.0318 74.5368 93.8073 76.0722 94.293 77.7955C94.7786 79.5188 94.8883 81.3205 94.622 83.2005H77.4435C77.6628 84.0778 78.0231 84.869 78.5245 85.574C79.0258 86.2633 79.6603 86.8195 80.428 87.2425C81.1956 87.6498 82.0651 87.8613 83.0365 87.877C84.0391 87.8927 84.9478 87.6577 85.7625 87.172C86.5928 86.6707 87.2821 85.997 87.8305 85.151L93.682 86.514C92.7263 88.5977 91.3006 90.3053 89.405 91.637C87.5093 92.953 85.3865 93.611 83.0365 93.611ZM77.2555 78.9H88.8175C88.6451 77.96 88.277 77.114 87.713 76.362C87.1646 75.5943 86.4831 74.9833 85.6685 74.529C84.8538 74.0747 83.9765 73.8475 83.0365 73.8475C82.0965 73.8475 81.227 74.0747 80.428 74.529C79.629 74.9677 78.9475 75.5708 78.3835 76.3385C77.8351 77.0905 77.4591 77.9443 77.2555 78.9ZM115.551 69.5H121.285V93H115.551L115.293 90.086C114.65 91.1357 113.797 91.9895 112.731 92.6475C111.682 93.2898 110.436 93.611 108.995 93.611C107.256 93.611 105.626 93.282 104.107 92.624C102.587 91.966 101.248 91.0573 100.088 89.898C98.9446 88.7387 98.0438 87.3992 97.3858 85.8795C96.7435 84.3598 96.4223 82.7305 96.4223 80.9915C96.4223 79.3152 96.7278 77.7407 97.3388 76.268C97.9655 74.7953 98.835 73.5028 99.9473 72.3905C101.06 71.2782 102.344 70.4087 103.801 69.782C105.258 69.1553 106.825 68.842 108.501 68.842C110.052 68.842 111.439 69.1867 112.661 69.876C113.898 70.5653 114.948 71.4427 115.81 72.508L115.551 69.5ZM108.854 88.0885C110.076 88.0885 111.157 87.783 112.097 87.172C113.037 86.561 113.773 85.7385 114.306 84.7045C114.838 83.6548 115.105 82.5033 115.105 81.25C115.105 79.981 114.838 78.8295 114.306 77.7955C113.773 76.7458 113.029 75.9155 112.073 75.3045C111.133 74.6935 110.06 74.388 108.854 74.388C107.647 74.388 106.543 74.7013 105.54 75.328C104.553 75.939 103.762 76.7615 103.167 77.7955C102.587 78.8295 102.297 79.981 102.297 81.25C102.297 82.519 102.595 83.6705 103.19 84.7045C103.786 85.7385 104.577 86.561 105.564 87.172C106.566 87.783 107.663 88.0885 108.854 88.0885ZM125.287 93L125.263 69.5H130.997L131.021 71.5915C131.82 70.7455 132.775 70.0797 133.888 69.594C135 69.0927 136.198 68.842 137.483 68.842C138.345 68.842 139.206 68.9673 140.068 69.218L137.812 74.999C137.217 74.764 136.621 74.6465 136.026 74.6465C135.102 74.6465 134.256 74.8737 133.488 75.328C132.736 75.7667 132.133 76.3698 131.679 77.1375C131.24 77.8895 131.021 78.7277 131.021 79.652V93H125.287ZM148.84 93.423C147.618 93.3447 146.435 93.1018 145.292 92.6945C144.164 92.2715 143.161 91.6997 142.284 90.979C141.406 90.2583 140.733 89.3967 140.263 88.394L145.104 86.326C145.292 86.6393 145.597 86.9762 146.02 87.3365C146.443 87.6812 146.944 87.971 147.524 88.206C148.119 88.441 148.77 88.5585 149.475 88.5585C150.07 88.5585 150.634 88.4802 151.167 88.3235C151.715 88.1512 152.154 87.8927 152.483 87.548C152.827 87.2033 153 86.7568 153 86.2085C153 85.6288 152.796 85.1823 152.389 84.869C151.997 84.54 151.496 84.2972 150.885 84.1405C150.289 83.9682 149.71 83.8115 149.146 83.6705C147.657 83.3728 146.271 82.9107 144.986 82.284C143.717 81.6573 142.691 80.8505 141.908 79.8635C141.14 78.8608 140.756 77.6545 140.756 76.2445C140.756 74.6935 141.163 73.354 141.978 72.226C142.808 71.098 143.882 70.2285 145.198 69.6175C146.529 69.0065 147.963 68.701 149.498 68.701C151.362 68.701 153.07 69.0927 154.621 69.876C156.188 70.6437 157.425 71.7325 158.334 73.1425L153.799 75.8215C153.579 75.4455 153.274 75.1008 152.882 74.7875C152.49 74.4585 152.044 74.1922 151.543 73.9885C151.041 73.7692 150.516 73.6438 149.968 73.6125C149.263 73.5812 148.621 73.6438 148.041 73.8005C147.461 73.9572 146.991 74.2235 146.631 74.5995C146.286 74.9755 146.114 75.4768 146.114 76.1035C146.114 76.6988 146.349 77.1453 146.819 77.443C147.289 77.725 147.853 77.9443 148.511 78.101C149.185 78.2577 149.827 78.43 150.438 78.618C151.817 79.0723 153.109 79.6285 154.316 80.2865C155.538 80.9445 156.517 81.7513 157.253 82.707C157.989 83.6627 158.342 84.8063 158.311 86.138C158.311 87.6577 157.856 88.9893 156.948 90.133C156.039 91.261 154.864 92.1227 153.423 92.718C151.997 93.3133 150.469 93.5483 148.84 93.423Z"
        fill="#171717" />
    <path
        d="M64.0004 107.654H74.4594V109.412H65.8949V113.768H73.8148V115.428H65.8949V120.291H74.6059V122H64.0004V107.654ZM75.6242 111.541H77.8996L80.302 115.223L82.7336 111.541L84.8723 111.59L81.3469 116.639L85.0285 122H82.7824L80.1848 118.074L77.6652 122H75.4387L79.1203 116.639L75.6242 111.541ZM90.7344 120.818C91.5547 120.818 92.235 120.477 92.7754 119.793C93.3223 119.103 93.5957 118.074 93.5957 116.707C93.5957 115.874 93.4753 115.158 93.2344 114.559C92.7786 113.406 91.9453 112.83 90.7344 112.83C89.5169 112.83 88.6836 113.439 88.2344 114.656C87.9935 115.307 87.873 116.134 87.873 117.137C87.873 117.944 87.9935 118.631 88.2344 119.197C88.6901 120.278 89.5234 120.818 90.7344 120.818ZM86.1836 111.59H87.8926V112.977C88.2441 112.501 88.6283 112.133 89.0449 111.873C89.6374 111.482 90.334 111.287 91.1348 111.287C92.3197 111.287 93.3255 111.743 94.1523 112.654C94.9792 113.559 95.3926 114.855 95.3926 116.541C95.3926 118.82 94.7969 120.447 93.6055 121.424C92.8503 122.042 91.9714 122.352 90.9687 122.352C90.181 122.352 89.5202 122.179 88.9863 121.834C88.6738 121.639 88.3255 121.303 87.9414 120.828V126.17H86.1836V111.59ZM101.509 111.307C102.251 111.307 102.97 111.482 103.667 111.834C104.363 112.179 104.894 112.628 105.259 113.182C105.61 113.709 105.845 114.324 105.962 115.027C106.066 115.509 106.118 116.277 106.118 117.332H98.452C98.4845 118.393 98.7352 119.246 99.2039 119.891C99.6727 120.529 100.399 120.848 101.382 120.848C102.3 120.848 103.032 120.545 103.579 119.939C103.891 119.588 104.113 119.181 104.243 118.719H105.971C105.926 119.103 105.773 119.533 105.512 120.008C105.259 120.477 104.972 120.861 104.653 121.16C104.119 121.681 103.458 122.033 102.671 122.215C102.248 122.319 101.769 122.371 101.235 122.371C99.9331 122.371 98.8296 121.899 97.9246 120.955C97.0197 120.005 96.5672 118.676 96.5672 116.971C96.5672 115.291 97.0229 113.927 97.9344 112.879C98.8458 111.831 100.037 111.307 101.509 111.307ZM104.311 115.936C104.24 115.174 104.074 114.565 103.813 114.109C103.332 113.263 102.527 112.84 101.401 112.84C100.594 112.84 99.9168 113.133 99.3699 113.719C98.823 114.298 98.5333 115.037 98.5008 115.936H104.311ZM108.035 111.541H109.705V113.348C109.841 112.996 110.177 112.57 110.711 112.068C111.244 111.561 111.86 111.307 112.556 111.307C112.589 111.307 112.644 111.31 112.722 111.316C112.8 111.323 112.934 111.336 113.123 111.355V113.211C113.018 113.191 112.921 113.178 112.83 113.172C112.745 113.165 112.651 113.162 112.546 113.162C111.661 113.162 110.981 113.449 110.505 114.021C110.03 114.588 109.793 115.242 109.793 115.984V122H108.035V111.541ZM114.346 111.59H116.133V122H114.346V111.59ZM114.346 107.654H116.133V109.646H114.346V107.654ZM122.855 111.307C123.597 111.307 124.316 111.482 125.013 111.834C125.71 112.179 126.24 112.628 126.605 113.182C126.956 113.709 127.191 114.324 127.308 115.027C127.412 115.509 127.464 116.277 127.464 117.332H119.798C119.831 118.393 120.081 119.246 120.55 119.891C121.019 120.529 121.745 120.848 122.728 120.848C123.646 120.848 124.378 120.545 124.925 119.939C125.237 119.588 125.459 119.181 125.589 118.719H127.318C127.272 119.103 127.119 119.533 126.859 120.008C126.605 120.477 126.318 120.861 125.999 121.16C125.465 121.681 124.805 122.033 124.017 122.215C123.594 122.319 123.115 122.371 122.581 122.371C121.279 122.371 120.176 121.899 119.271 120.955C118.366 120.005 117.913 118.676 117.913 116.971C117.913 115.291 118.369 113.927 119.28 112.879C120.192 111.831 121.383 111.307 122.855 111.307ZM125.657 115.936C125.586 115.174 125.42 114.565 125.159 114.109C124.678 113.263 123.874 112.84 122.747 112.84C121.94 112.84 121.263 113.133 120.716 113.719C120.169 114.298 119.879 115.037 119.847 115.936H125.657ZM129.332 111.541H131.002V113.025C131.497 112.413 132.021 111.974 132.574 111.707C133.128 111.44 133.743 111.307 134.42 111.307C135.904 111.307 136.907 111.824 137.428 112.859C137.714 113.426 137.857 114.236 137.857 115.291V122H136.07V115.408C136.07 114.77 135.976 114.256 135.787 113.865C135.475 113.214 134.908 112.889 134.088 112.889C133.671 112.889 133.329 112.931 133.062 113.016C132.581 113.159 132.158 113.445 131.793 113.875C131.5 114.22 131.308 114.578 131.217 114.949C131.132 115.314 131.09 115.838 131.09 116.521V122H129.332V111.541ZM144.198 111.238C145.376 111.238 146.333 111.525 147.069 112.098C147.811 112.671 148.257 113.657 148.407 115.057H146.698C146.594 114.412 146.356 113.878 145.985 113.455C145.614 113.025 145.018 112.811 144.198 112.811C143.078 112.811 142.277 113.357 141.796 114.451C141.483 115.161 141.327 116.036 141.327 117.078C141.327 118.126 141.548 119.008 141.991 119.725C142.434 120.441 143.13 120.799 144.081 120.799C144.81 120.799 145.386 120.577 145.809 120.135C146.239 119.686 146.535 119.074 146.698 118.299H148.407C148.212 119.686 147.723 120.701 146.942 121.346C146.161 121.984 145.162 122.303 143.944 122.303C142.577 122.303 141.486 121.805 140.673 120.809C139.859 119.806 139.452 118.556 139.452 117.059C139.452 115.223 139.898 113.794 140.79 112.771C141.682 111.749 142.818 111.238 144.198 111.238ZM154.22 111.307C154.963 111.307 155.682 111.482 156.379 111.834C157.075 112.179 157.606 112.628 157.97 113.182C158.322 113.709 158.556 114.324 158.673 115.027C158.778 115.509 158.83 116.277 158.83 117.332H151.164C151.196 118.393 151.447 119.246 151.916 119.891C152.384 120.529 153.11 120.848 154.093 120.848C155.011 120.848 155.744 120.545 156.291 119.939C156.603 119.588 156.824 119.181 156.955 118.719H158.683C158.638 119.103 158.485 119.533 158.224 120.008C157.97 120.477 157.684 120.861 157.365 121.16C156.831 121.681 156.17 122.033 155.382 122.215C154.959 122.319 154.481 122.371 153.947 122.371C152.645 122.371 151.541 121.899 150.636 120.955C149.731 120.005 149.279 118.676 149.279 116.971C149.279 115.291 149.735 113.927 150.646 112.879C151.558 111.831 152.749 111.307 154.22 111.307ZM157.023 115.936C156.951 115.174 156.785 114.565 156.525 114.109C156.043 113.263 155.239 112.84 154.113 112.84C153.306 112.84 152.629 113.133 152.082 113.719C151.535 114.298 151.245 115.037 151.213 115.936H157.023Z"
        fill="#171717" />
</svg>
    