<svg width="695" height="368" viewBox="0 0 695 368" fill="none" xmlns="http://www.w3.org/2000/svg">
    <path
        d="M131.794 160V92.8H141.778V160H131.794ZM154.729 160V112H164.713V117.088C166.377 115.104 168.409 113.536 170.809 112.384C173.241 111.232 175.865 110.656 178.681 110.656C182.105 110.656 185.257 111.488 188.137 113.152C191.017 114.784 193.305 116.96 195.001 119.68C196.697 116.96 198.953 114.784 201.769 113.152C204.617 111.488 207.753 110.656 211.177 110.656C214.729 110.656 217.961 111.52 220.873 113.248C223.785 114.976 226.105 117.296 227.833 120.208C229.561 123.12 230.425 126.352 230.425 129.904V160H220.441V132.448C220.441 130.336 219.929 128.4 218.905 126.64C217.881 124.88 216.505 123.456 214.777 122.368C213.049 121.28 211.129 120.736 209.017 120.736C206.905 120.736 204.985 121.248 203.257 122.272C201.529 123.296 200.153 124.688 199.129 126.448C198.105 128.208 197.593 130.208 197.593 132.448V160H187.609V132.448C187.609 130.208 187.097 128.208 186.073 126.448C185.049 124.688 183.657 123.296 181.897 122.272C180.169 121.248 178.249 120.736 176.137 120.736C174.057 120.736 172.137 121.28 170.377 122.368C168.649 123.456 167.273 124.88 166.249 126.64C165.225 128.4 164.713 130.336 164.713 132.448V160H154.729ZM591.653 165.376L594.629 149.152H604.613L598.277 165.376H591.653ZM71.4926 276.248C66.1166 276.248 61.4286 274.936 57.4286 272.312C53.4606 269.688 50.3726 266.168 48.1646 261.752C45.9886 257.304 44.9006 252.376 44.9006 246.968V207.8H54.8846V246.968C54.8846 250.488 55.5246 253.72 56.8046 256.664C58.1166 259.576 60.0046 261.912 62.4686 263.672C64.9646 265.4 67.9726 266.264 71.4926 266.264C75.1086 266.264 78.1486 265.4 80.6126 263.672C83.0766 261.912 84.9326 259.576 86.1806 256.664C87.4606 253.72 88.1006 250.488 88.1006 246.968V207.8H98.0846V246.968C98.0846 251.032 97.4606 254.84 96.2126 258.392C94.9646 261.912 93.1726 265.016 90.8366 267.704C88.5006 270.392 85.7006 272.488 82.4366 273.992C79.1726 275.496 75.5246 276.248 71.4926 276.248ZM110.184 275V207.8H120.168V275H110.184ZM160.623 207.8L141.183 280.376H131.199L150.639 207.8H160.623ZM196.836 276.248C191.46 276.248 186.772 274.936 182.772 272.312C178.804 269.688 175.716 266.168 173.508 261.752C171.332 257.304 170.244 252.376 170.244 246.968V207.8H180.228V246.968C180.228 250.488 180.868 253.72 182.148 256.664C183.46 259.576 185.348 261.912 187.812 263.672C190.308 265.4 193.316 266.264 196.836 266.264C200.452 266.264 203.492 265.4 205.956 263.672C208.42 261.912 210.276 259.576 211.524 256.664C212.804 253.72 213.444 250.488 213.444 246.968V207.8H223.428V246.968C223.428 251.032 222.804 254.84 221.556 258.392C220.308 261.912 218.516 265.016 216.18 267.704C213.844 270.392 211.044 272.488 207.78 273.992C204.516 275.496 200.868 276.248 196.836 276.248ZM232.052 275L256.676 241.208L232.34 207.8H244.676L262.82 232.76L281.012 207.8H293.348L269.06 241.208L293.636 275H281.252L262.82 249.752L244.484 275H232.052ZM325.307 275V207.8H347.531C352.171 207.8 356.523 208.68 360.587 210.44C364.651 212.168 368.219 214.584 371.291 217.688C374.363 220.76 376.763 224.328 378.491 228.392C380.251 232.424 381.131 236.76 381.131 241.4C381.131 246.04 380.251 250.392 378.491 254.456C376.763 258.488 374.363 262.056 371.291 265.16C368.219 268.232 364.651 270.648 360.587 272.408C356.523 274.136 352.171 275 347.531 275H325.307ZM335.291 265.016H347.531C350.795 265.016 353.835 264.408 356.651 263.192C359.499 261.976 362.011 260.28 364.187 258.104C366.395 255.928 368.107 253.416 369.323 250.568C370.539 247.72 371.147 244.664 371.147 241.4C371.147 238.136 370.539 235.08 369.323 232.232C368.107 229.384 366.395 226.872 364.187 224.696C362.011 222.52 359.499 220.824 356.651 219.608C353.835 218.392 350.795 217.784 347.531 217.784H335.291V265.016ZM409.708 276.248C405.292 276.248 401.26 275.112 397.612 272.84C393.996 270.568 391.1 267.528 388.924 263.72C386.78 259.88 385.708 255.64 385.708 251C385.708 247.48 386.332 244.2 387.58 241.16C388.828 238.088 390.54 235.4 392.716 233.096C394.924 230.76 397.484 228.936 400.396 227.624C403.308 226.312 406.412 225.656 409.708 225.656C413.388 225.656 416.764 226.424 419.836 227.96C422.908 229.464 425.532 231.56 427.708 234.248C429.884 236.904 431.484 239.976 432.508 243.464C433.532 246.92 433.836 250.6 433.42 254.504H396.412C396.828 256.712 397.628 258.712 398.812 260.504C400.028 262.264 401.564 263.656 403.42 264.68C405.308 265.704 407.404 266.232 409.708 266.264C412.14 266.264 414.348 265.656 416.332 264.44C418.348 263.224 419.996 261.544 421.276 259.4L431.404 261.752C429.484 266.008 426.588 269.496 422.716 272.216C418.844 274.904 414.508 276.248 409.708 276.248ZM396.076 246.872H423.34C423.02 244.568 422.204 242.488 420.892 240.632C419.612 238.744 417.996 237.256 416.044 236.168C414.124 235.048 412.012 234.488 409.708 234.488C407.436 234.488 405.324 235.032 403.372 236.12C401.452 237.208 399.852 238.696 398.572 240.584C397.324 242.44 396.492 244.536 396.076 246.872ZM455.957 275.912C453.429 275.752 450.965 275.24 448.565 274.376C446.165 273.512 444.053 272.344 442.229 270.872C440.437 269.368 439.093 267.608 438.197 265.592L446.693 261.944C447.109 262.808 447.829 263.656 448.853 264.488C449.909 265.32 451.141 266.008 452.549 266.552C453.957 267.064 455.429 267.32 456.965 267.32C458.469 267.32 459.861 267.112 461.141 266.696C462.453 266.248 463.525 265.576 464.357 264.68C465.189 263.784 465.605 262.712 465.605 261.464C465.605 260.056 465.125 258.968 464.165 258.2C463.237 257.4 462.069 256.792 460.661 256.376C459.253 255.96 457.845 255.56 456.437 255.176C453.301 254.472 450.421 253.512 447.797 252.296C445.205 251.048 443.141 249.464 441.605 247.544C440.069 245.592 439.301 243.208 439.301 240.392C439.301 237.32 440.133 234.664 441.797 232.424C443.461 230.152 445.637 228.408 448.325 227.192C451.045 225.976 453.941 225.368 457.013 225.368C460.853 225.368 464.373 226.184 467.573 227.816C470.773 229.448 473.221 231.688 474.917 234.536L466.997 239.24C466.517 238.28 465.797 237.416 464.837 236.648C463.877 235.88 462.789 235.272 461.573 234.824C460.357 234.344 459.093 234.072 457.781 234.008C456.149 233.944 454.629 234.136 453.221 234.584C451.845 235 450.741 235.672 449.909 236.6C449.077 237.528 448.661 238.712 448.661 240.152C448.661 241.56 449.157 242.616 450.149 243.32C451.141 243.992 452.389 244.536 453.893 244.952C455.429 245.368 456.997 245.832 458.597 246.344C461.445 247.24 464.117 248.344 466.613 249.656C469.109 250.936 471.125 252.52 472.661 254.408C474.197 256.296 474.933 258.6 474.869 261.32C474.869 264.328 473.957 266.968 472.133 269.24C470.341 271.512 468.005 273.24 465.125 274.424C462.245 275.608 459.189 276.104 455.957 275.912ZM482.244 227H492.228V275H482.244V227ZM487.332 220.04C485.796 220.04 484.516 219.544 483.492 218.552C482.468 217.56 481.956 216.312 481.956 214.808C481.956 213.336 482.468 212.104 483.492 211.112C484.516 210.088 485.78 209.576 487.284 209.576C488.756 209.576 490.004 210.088 491.028 211.112C492.052 212.104 492.564 213.336 492.564 214.808C492.564 216.312 492.052 217.56 491.028 218.552C490.036 219.544 488.804 220.04 487.332 220.04ZM539.397 227H549.381V276.248C549.381 279.544 548.677 282.584 547.269 285.368C545.893 288.152 544.021 290.552 541.653 292.568C539.285 294.616 536.565 296.2 533.493 297.32C530.453 298.44 527.269 299 523.941 299C520.581 299 517.349 298.28 514.245 296.84C511.141 295.432 508.405 293.512 506.037 291.08C503.701 288.648 501.957 285.896 500.805 282.824L509.973 278.696C510.613 280.68 511.637 282.44 513.045 283.976C514.485 285.512 516.149 286.728 518.037 287.624C519.957 288.52 521.925 288.968 523.941 288.968C525.925 288.968 527.829 288.648 529.653 288.008C531.509 287.4 533.157 286.536 534.597 285.416C536.069 284.296 537.237 282.952 538.101 281.384C538.965 279.816 539.397 278.104 539.397 276.248V268.136C537.829 270.568 535.813 272.536 533.349 274.04C530.885 275.512 528.021 276.248 524.757 276.248C521.365 276.248 518.165 275.592 515.157 274.28C512.149 272.968 509.509 271.16 507.237 268.856C504.965 266.52 503.189 263.832 501.909 260.792C500.629 257.752 499.989 254.488 499.989 251C499.989 247.512 500.629 244.248 501.909 241.208C503.189 238.136 504.965 235.448 507.237 233.144C509.509 230.808 512.149 228.984 515.157 227.672C518.165 226.36 521.365 225.704 524.757 225.704C528.021 225.704 530.885 226.456 533.349 227.96C535.813 229.432 537.829 231.4 539.397 233.864V227ZM524.853 266.6C527.637 266.6 530.069 265.896 532.149 264.488C534.229 263.048 535.845 261.144 536.997 258.776C538.149 256.408 538.725 253.816 538.725 251C538.725 248.12 538.133 245.512 536.949 243.176C535.797 240.808 534.181 238.92 532.101 237.512C530.021 236.072 527.605 235.352 524.853 235.352C522.165 235.352 519.701 236.056 517.461 237.464C515.253 238.872 513.493 240.76 512.181 243.128C510.869 245.496 510.213 248.12 510.213 251C510.213 253.88 510.869 256.504 512.181 258.872C513.525 261.24 515.301 263.128 517.509 264.536C519.749 265.912 522.197 266.6 524.853 266.6ZM604.101 244.904V275H594.117V247.352C594.117 245.208 593.589 243.256 592.533 241.496C591.509 239.736 590.117 238.344 588.357 237.32C586.629 236.264 584.677 235.736 582.501 235.736C580.389 235.736 578.453 236.264 576.693 237.32C574.933 238.344 573.525 239.736 572.469 241.496C571.413 243.256 570.885 245.208 570.885 247.352V275H560.901V227H570.885V232.088C572.549 230.104 574.597 228.536 577.029 227.384C579.461 226.232 582.085 225.656 584.901 225.656C588.453 225.656 591.685 226.52 594.597 228.248C597.509 229.976 599.813 232.296 601.509 235.208C603.237 238.12 604.101 241.352 604.101 244.904ZM633.864 276.248C629.448 276.248 625.416 275.112 621.768 272.84C618.152 270.568 615.256 267.528 613.08 263.72C610.936 259.88 609.864 255.64 609.864 251C609.864 247.48 610.488 244.2 611.736 241.16C612.984 238.088 614.696 235.4 616.872 233.096C619.08 230.76 621.64 228.936 624.552 227.624C627.464 226.312 630.568 225.656 633.864 225.656C637.544 225.656 640.92 226.424 643.992 227.96C647.064 229.464 649.688 231.56 651.864 234.248C654.04 236.904 655.64 239.976 656.664 243.464C657.688 246.92 657.992 250.6 657.576 254.504H620.568C620.984 256.712 621.784 258.712 622.968 260.504C624.184 262.264 625.72 263.656 627.576 264.68C629.464 265.704 631.56 266.232 633.864 266.264C636.296 266.264 638.504 265.656 640.488 264.44C642.504 263.224 644.152 261.544 645.432 259.4L655.56 261.752C653.64 266.008 650.744 269.496 646.872 272.216C643 274.904 638.664 276.248 633.864 276.248ZM620.232 246.872H647.496C647.176 244.568 646.36 242.488 645.048 240.632C643.768 238.744 642.152 237.256 640.2 236.168C638.28 235.048 636.168 234.488 633.864 234.488C631.592 234.488 629.48 235.032 627.528 236.12C625.608 237.208 624.008 238.696 622.728 240.584C621.48 242.44 620.648 244.536 620.232 246.872ZM665.526 275V227H675.51V232.088C677.174 230.104 679.222 228.536 681.654 227.384C684.086 226.232 686.71 225.656 689.526 225.656C691.318 225.656 693.094 225.896 694.854 226.376L690.87 236.456C689.622 235.976 688.374 235.736 687.126 235.736C685.014 235.736 683.078 236.264 681.318 237.32C679.558 238.344 678.15 239.736 677.094 241.496C676.038 243.256 675.51 245.208 675.51 247.352V275H665.526Z"
        fill="black" />
    <path
        d="M287.056 161.248C283.376 161.248 279.84 160.672 276.448 159.52C273.056 158.368 270.096 156.72 267.568 154.576C265.04 152.4 263.232 149.824 262.144 146.848L271.504 143.344C272.048 144.88 273.088 146.256 274.624 147.472C276.192 148.656 278.048 149.584 280.192 150.256C282.368 150.928 284.656 151.264 287.056 151.264C289.616 151.264 292.016 150.848 294.256 150.016C296.528 149.184 298.352 148.032 299.728 146.56C301.136 145.088 301.84 143.36 301.84 141.376C301.84 139.328 301.104 137.648 299.632 136.336C298.192 135.024 296.336 133.984 294.064 133.216C291.824 132.448 289.488 131.872 287.056 131.488C282.352 130.72 278.128 129.6 274.384 128.128C270.672 126.656 267.728 124.592 265.552 121.936C263.408 119.28 262.336 115.824 262.336 111.568C262.336 107.568 263.472 104.08 265.744 101.104C268.048 98.128 271.072 95.824 274.816 94.192C278.592 92.528 282.672 91.696 287.056 91.696C290.672 91.696 294.16 92.272 297.52 93.424C300.912 94.544 303.888 96.192 306.448 98.368C309.04 100.512 310.896 103.12 312.016 106.192L302.56 109.6C302.016 108.032 300.976 106.672 299.44 105.52C297.904 104.336 296.048 103.408 293.872 102.736C291.728 102.064 289.456 101.728 287.056 101.728C284.496 101.696 282.096 102.112 279.856 102.976C277.648 103.808 275.84 104.96 274.432 106.432C273.024 107.904 272.32 109.616 272.32 111.568C272.32 113.968 272.976 115.792 274.288 117.04C275.6 118.288 277.36 119.216 279.568 119.824C281.808 120.4 284.304 120.928 287.056 121.408C291.472 122.112 295.552 123.28 299.296 124.912C303.072 126.544 306.096 128.72 308.368 131.44C310.672 134.128 311.824 137.44 311.824 141.376C311.824 145.344 310.672 148.832 308.368 151.84C306.096 154.816 303.072 157.136 299.296 158.8C295.552 160.432 291.472 161.248 287.056 161.248ZM366.116 129.904V160H356.132V132.352C356.132 130.208 355.604 128.256 354.548 126.496C353.524 124.736 352.132 123.344 350.372 122.32C348.644 121.264 346.692 120.736 344.516 120.736C342.404 120.736 340.468 121.264 338.708 122.32C336.948 123.344 335.54 124.736 334.484 126.496C333.428 128.256 332.9 130.208 332.9 132.352V160H322.916V88H332.9V117.088C334.564 115.104 336.612 113.536 339.044 112.384C341.476 111.232 344.1 110.656 346.916 110.656C350.468 110.656 353.7 111.52 356.612 113.248C359.524 114.976 361.828 117.296 363.524 120.208C365.252 123.12 366.116 126.352 366.116 129.904ZM397.052 160H387.116L371.036 112H380.828L392.156 145.696L403.388 112H413.468L424.7 145.696L435.98 112H445.772L429.74 160H419.708L408.38 126.064L397.052 160ZM472.474 161.248C468.058 161.248 464.026 160.112 460.378 157.84C456.762 155.568 453.866 152.528 451.69 148.72C449.546 144.88 448.474 140.64 448.474 136C448.474 132.48 449.098 129.2 450.346 126.16C451.594 123.088 453.306 120.4 455.482 118.096C457.69 115.76 460.25 113.936 463.162 112.624C466.074 111.312 469.178 110.656 472.474 110.656C476.154 110.656 479.53 111.424 482.602 112.96C485.674 114.464 488.298 116.56 490.474 119.248C492.65 121.904 494.25 124.976 495.274 128.464C496.298 131.92 496.602 135.6 496.186 139.504H459.178C459.594 141.712 460.394 143.712 461.578 145.504C462.794 147.264 464.33 148.656 466.186 149.68C468.074 150.704 470.17 151.232 472.474 151.264C474.906 151.264 477.114 150.656 479.098 149.44C481.114 148.224 482.762 146.544 484.042 144.4L494.17 146.752C492.25 151.008 489.354 154.496 485.482 157.216C481.61 159.904 477.274 161.248 472.474 161.248ZM458.842 131.872H486.106C485.786 129.568 484.97 127.488 483.658 125.632C482.378 123.744 480.762 122.256 478.81 121.168C476.89 120.048 474.778 119.488 472.474 119.488C470.202 119.488 468.09 120.032 466.138 121.12C464.218 122.208 462.618 123.696 461.338 125.584C460.09 127.44 459.258 129.536 458.842 131.872ZM529.198 121.984H519.118L519.07 160H509.086L509.134 121.984H501.502V112H509.134L509.086 96.928H519.07L519.118 112H529.198V121.984ZM574.01 112H583.994V160H573.962L573.578 153.04C572.17 155.504 570.266 157.488 567.866 158.992C565.466 160.496 562.634 161.248 559.37 161.248C555.85 161.248 552.538 160.592 549.434 159.28C546.33 157.936 543.594 156.08 541.226 153.712C538.89 151.344 537.066 148.624 535.754 145.552C534.442 142.448 533.786 139.12 533.786 135.568C533.786 132.144 534.426 128.928 535.706 125.92C536.986 122.88 538.762 120.224 541.034 117.952C543.306 115.68 545.93 113.904 548.906 112.624C551.914 111.312 555.13 110.656 558.554 110.656C562.042 110.656 565.114 111.456 567.77 113.056C570.458 114.624 572.682 116.64 574.442 119.104L574.01 112ZM559.13 151.6C561.946 151.6 564.41 150.912 566.522 149.536C568.634 148.128 570.266 146.24 571.418 143.872C572.602 141.504 573.194 138.88 573.194 136C573.194 133.088 572.602 130.448 571.418 128.08C570.234 125.712 568.586 123.84 566.474 122.464C564.394 121.056 561.946 120.352 559.13 120.352C556.346 120.352 553.802 121.056 551.498 122.464C549.194 123.872 547.37 125.76 546.026 128.128C544.682 130.496 544.01 133.12 544.01 136C544.01 138.912 544.698 141.552 546.074 143.92C547.482 146.256 549.322 148.128 551.594 149.536C553.898 150.912 556.41 151.6 559.13 151.6Z"
        fill="#4F6F52" />
    <rect x="338.137" y="21.6373" width="99.7059" height="43.7255" rx="21.8627" fill="white"
        fill-opacity="0.1" />
    <rect x="338.137" y="21.6373" width="99.7059" height="43.7255" rx="21.8627" stroke="#171717"
        stroke-width="1.27451" />
    <path
        d="M364.562 35.6543H366.525V41.582H373.986V35.6543H375.949V50H373.986V43.291H366.525V50H364.562V35.6543ZM382.788 39.3066C383.53 39.3066 384.249 39.4824 384.946 39.834C385.643 40.179 386.173 40.6283 386.538 41.1816C386.889 41.709 387.124 42.3242 387.241 43.0273C387.345 43.5091 387.397 44.2773 387.397 45.332H379.731C379.764 46.3932 380.014 47.2461 380.483 47.8906C380.952 48.5286 381.678 48.8477 382.661 48.8477C383.579 48.8477 384.311 48.5449 384.858 47.9395C385.171 47.5879 385.392 47.181 385.522 46.7188H387.251C387.205 47.1029 387.052 47.5326 386.792 48.0078C386.538 48.4766 386.251 48.8607 385.932 49.1602C385.399 49.681 384.738 50.0326 383.95 50.2148C383.527 50.319 383.048 50.3711 382.514 50.3711C381.212 50.3711 380.109 49.8991 379.204 48.9551C378.299 48.0046 377.846 46.6764 377.846 44.9707C377.846 43.291 378.302 41.9271 379.214 40.8789C380.125 39.8307 381.317 39.3066 382.788 39.3066ZM385.591 43.9355C385.519 43.1738 385.353 42.5651 385.093 42.1094C384.611 41.263 383.807 40.8398 382.68 40.8398C381.873 40.8398 381.196 41.1328 380.649 41.7188C380.102 42.2982 379.813 43.0371 379.78 43.9355H385.591ZM389.314 35.6543H391.072V50H389.314V35.6543ZM393.467 35.6543H395.225V50H393.467V35.6543ZM401.722 48.8672C402.887 48.8672 403.685 48.4277 404.114 47.5488C404.551 46.6634 404.769 45.6803 404.769 44.5996C404.769 43.623 404.612 42.8288 404.3 42.2168C403.805 41.2533 402.952 40.7715 401.741 40.7715C400.667 40.7715 399.886 41.1816 399.398 42.002C398.909 42.8223 398.665 43.8118 398.665 44.9707C398.665 46.084 398.909 47.0117 399.398 47.7539C399.886 48.4961 400.661 48.8672 401.722 48.8672ZM401.79 39.2383C403.138 39.2383 404.277 39.6875 405.208 40.5859C406.139 41.4844 406.605 42.806 406.605 44.5508C406.605 46.237 406.195 47.6302 405.374 48.7305C404.554 49.8307 403.281 50.3809 401.556 50.3809C400.117 50.3809 398.974 49.8958 398.128 48.9258C397.282 47.9492 396.859 46.6406 396.859 45C396.859 43.2422 397.305 41.8424 398.196 40.8008C399.088 39.7591 400.286 39.2383 401.79 39.2383ZM409.43 35.6543H411.412V40.3711L410.934 46.582H409.938L409.43 40.3711V35.6543ZM409.43 47.9688H411.373V50H409.43V47.9688Z"
        fill="#171717" />
    <path
        d="M435.99 20C435.99 17 438.99 11 435.99 2M443.49 23.5C447.824 19.3333 456.69 9.2 457.49 2M446.49 30.5C449.157 30.5 456.29 29.1 463.49 23.5"
        stroke="#86A789" stroke-width="4" stroke-linecap="round" stroke-linejoin="round" />
    <path
        d="M71.3108 319.231C69.6285 326.891 58.6038 340.529 61.2168 365.191M54.1236 306.089C40.7226 314.298 12.4005 335.199 6.3202 353.135M50.3891 286.533C43.5802 285.038 24.5813 284.612 3.05698 294.873"
        stroke="#86A789" stroke-width="5" stroke-linecap="round" stroke-linejoin="round" />
</svg>
    